<svg width="24" height="24" viewBox="0 0 24 24" fill="none" xmlns="http://www.w3.org/2000/svg">
<path fill-rule="evenodd" clip-rule="evenodd" d="M12 23C18.0751 23 23 18.0751 23 12C23 5.92487 18.0751 1 12 1C5.92487 1 1 5.92487 1 12C1 18.0751 5.92487 23 12 23Z" fill="#D8D8D8" stroke="white" stroke-width="2"/>
<mask id="mask0" mask-type="alpha" maskUnits="userSpaceOnUse" x="1" y="1" width="22" height="22">
<path fill-rule="evenodd" clip-rule="evenodd" d="M12 23C18.0751 23 23 18.0751 23 12C23 5.92487 18.0751 1 12 1C5.92487 1 1 5.92487 1 12C1 18.0751 5.92487 23 12 23Z" fill="white"/>
</mask>
<g mask="url(#mask0)">
<path d="M32.8 1H-9V23H32.8V1Z" fill="#B22234"/>
<path d="M-9 2.69226H32.8V4.38457H-9V2.69226Z" fill="white"/>
<path d="M-9 6.07688H32.8V7.76918H-9V6.07688Z" fill="white"/>
<path d="M-9 9.46149H32.8V11.1538H-9V9.46149Z" fill="white"/>
<path d="M-9 12.8461H32.8V14.5384H-9V12.8461Z" fill="white"/>
<path d="M-9 16.2307H32.8V17.923H-9V16.2307Z" fill="white"/>
<path d="M-9 19.6153H32.8V21.3076H-9V19.6153Z" fill="white"/>
<path d="M7.72 1H-9V12.8461H7.72V1Z" fill="#3C3B6E"/>
<g clip-path="url(#clip0)">
<path d="M0.994782 2.26584L1.14709 2.73292L0.747701 2.44184L0.351695 2.73292L0.504005 2.26584L0.104614 1.97477H0.595391L0.747701 1.50769L0.900011 1.97477H1.39079L0.994782 2.26584Z" fill="white"/>
<path d="M0.994782 4.63511L1.14709 5.10218L0.747701 4.81111L0.351695 5.10218L0.504005 4.63511L0.104614 4.34403H0.595391L0.747701 3.87695L0.900011 4.34403H1.39079L0.994782 4.63511Z" fill="white"/>
<path d="M0.994782 7.00425L1.14709 7.47132L0.747701 7.18025L0.351695 7.47132L0.504005 7.00425L0.104614 6.71317H0.595391L0.747701 6.24609L0.900011 6.71317H1.39079L0.994782 7.00425Z" fill="white"/>
<path d="M0.994782 9.37351L1.14709 9.84059L0.747701 9.54951L0.351695 9.84059L0.504005 9.37351L0.104614 9.08243H0.595391L0.747701 8.61536L0.900011 9.08243H1.39079L0.994782 9.37351Z" fill="white"/>
<path d="M0.994782 11.7428L1.14709 12.2098L0.747701 11.9188L0.351695 12.2098L0.504005 11.7428L0.104614 11.4517H0.595391L0.747701 10.9846L0.900011 11.4517H1.39079L0.994782 11.7428Z" fill="white"/>
<path d="M2.38592 3.45041L2.53822 3.91749L2.14222 3.62641L1.74284 3.91749L1.89515 3.45041L1.49915 3.15934H1.98992L2.14222 2.69226L2.29453 3.15934H2.7853L2.38592 3.45041Z" fill="white"/>
<path d="M2.38592 5.81968L2.53822 6.28675L2.14222 5.99568L1.74284 6.28675L1.89515 5.81968L1.49915 5.5286H1.98992L2.14222 5.06152L2.29453 5.5286H2.7853L2.38592 5.81968Z" fill="white"/>
<path d="M2.38592 8.18894L2.53822 8.65602L2.14222 8.36494L1.74284 8.65602L1.89515 8.18894L1.49915 7.89786H1.98992L2.14222 7.43079L2.29453 7.89786H2.7853L2.38592 8.18894Z" fill="white"/>
<path d="M2.38592 10.5582L2.53822 11.0253L2.14222 10.7342L1.74284 11.0253L1.89515 10.5582L1.49915 10.2671H1.98992L2.14222 9.80005L2.29453 10.2671H2.7853L2.38592 10.5582Z" fill="white"/>
<path d="M3.78042 2.26584L3.93272 2.73292L3.53334 2.44184L3.13734 2.73292L3.28965 2.26584L2.89026 1.97477H3.38441L3.53334 1.50769L3.68565 1.97477H4.1798L3.78042 2.26584Z" fill="white"/>
<path d="M3.78042 4.63511L3.93272 5.10218L3.53334 4.81111L3.13734 5.10218L3.28965 4.63511L2.89026 4.34403H3.38441L3.53334 3.87695L3.68565 4.34403H4.1798L3.78042 4.63511Z" fill="white"/>
<path d="M3.78042 7.00425L3.93272 7.47132L3.53334 7.18025L3.13734 7.47132L3.28965 7.00425L2.89026 6.71317H3.38441L3.53334 6.24609L3.68565 6.71317H4.1798L3.78042 7.00425Z" fill="white"/>
<path d="M3.78042 9.37351L3.93272 9.84059L3.53334 9.54951L3.13734 9.84059L3.28965 9.37351L2.89026 9.08243H3.38441L3.53334 8.61536L3.68565 9.08243H4.1798L3.78042 9.37351Z" fill="white"/>
<path d="M3.78042 11.7428L3.93272 12.2098L3.53334 11.9188L3.13734 12.2098L3.28965 11.7428L2.89026 11.4517H3.38441L3.53334 10.9846L3.68565 11.4517H4.1798L3.78042 11.7428Z" fill="white"/>
<path d="M5.17482 3.45041L5.32713 3.91749L4.92775 3.62641L4.53175 3.91749L4.68067 3.45041L4.28467 3.15934H4.77544L4.92775 2.69226L5.08005 3.15934H5.57083L5.17482 3.45041Z" fill="white"/>
<path d="M5.17482 5.81968L5.32713 6.28675L4.92775 5.99568L4.53175 6.28675L4.68067 5.81968L4.28467 5.5286H4.77544L4.92775 5.06152L5.08005 5.5286H5.57083L5.17482 5.81968Z" fill="white"/>
<path d="M5.17482 8.18894L5.32713 8.65602L4.92775 8.36494L4.53175 8.65602L4.68067 8.18894L4.28467 7.89786H4.77544L4.92775 7.43079L5.08005 7.89786H5.57083L5.17482 8.18894Z" fill="white"/>
<path d="M5.17482 10.5582L5.32713 11.0253L4.92775 10.7342L4.53175 11.0253L4.68067 10.5582L4.28467 10.2671H4.77544L4.92775 9.80005L5.08005 10.2671H5.57083L5.17482 10.5582Z" fill="white"/>
<path d="M6.56585 2.26584L6.71816 2.73292L6.32216 2.44184L5.92277 2.73292L6.07508 2.26584L5.67908 1.97477H6.16985L6.32216 1.50769L6.47446 1.97477H6.96523L6.56585 2.26584Z" fill="white"/>
<path d="M6.56585 4.63511L6.71816 5.10218L6.32216 4.81111L5.92277 5.10218L6.07508 4.63511L5.67908 4.34403H6.16985L6.32216 3.87695L6.47446 4.34403H6.96523L6.56585 4.63511Z" fill="white"/>
<path d="M6.56585 7.00425L6.71816 7.47132L6.32216 7.18025L5.92277 7.47132L6.07508 7.00425L5.67908 6.71317H6.16985L6.32216 6.24609L6.47446 6.71317H6.96523L6.56585 7.00425Z" fill="white"/>
<path d="M6.56585 9.37351L6.71816 9.84059L6.32216 9.54951L5.92277 9.84059L6.07508 9.37351L5.67908 9.08243H6.16985L6.32216 8.61536L6.47446 9.08243H6.96523L6.56585 9.37351Z" fill="white"/>
<path d="M6.56585 11.7428L6.71816 12.2098L6.32216 11.9188L5.92277 12.2098L6.07508 11.7428L5.67908 11.4517H6.16985L6.32216 10.9846L6.47446 11.4517H6.96523L6.56585 11.7428Z" fill="white"/>
</g>
</g>
<defs>
<clipPath id="clip0">
<rect x="-8.25537" y="1.50769" width="15.2207" height="10.7022" fill="white"/>
</clipPath>
</defs>
</svg>
