<svg width="203" height="38" viewBox="0 0 203 38" fill="none" xmlns="http://www.w3.org/2000/svg">
<path d="M19.2152 22.1783C18.6623 22.1783 18.2106 22.6224 18.2106 23.1659C18.2106 23.716 18.6623 24.1601 19.2152 24.1601C19.7748 24.1601 20.2265 23.716 20.2265 23.1659C20.2265 22.6224 19.7748 22.1783 19.2152 22.1783Z" fill="#064E31"/>
<path d="M19.2152 15.8151C19.7748 15.8151 20.2265 15.371 20.2265 14.8209C20.2265 14.2773 19.7748 13.8333 19.2152 13.8333C18.6623 13.8333 18.2106 14.2773 18.2106 14.8209C18.2106 15.371 18.6623 15.8151 19.2152 15.8151Z" fill="#064E31"/>
<path d="M38.6529 11.1289C38.6529 4.98448 33.5895 0 27.3328 0C24.2044 0 21.3727 1.24612 19.3298 3.26112C17.2802 1.24612 14.4485 0 11.3201 0C5.07011 0 0 4.98448 0 11.1289C0 14.2044 1.26753 16.9883 3.31715 18.9967C1.26753 21.0183 0 23.7956 0 26.8711C0 33.0155 5.07011 38 11.3201 38C14.4485 38 17.2802 36.7539 19.3231 34.7389C21.3727 36.7539 24.2044 38 27.326 38C33.576 38 38.6461 33.0155 38.6461 26.8711C38.6461 23.7956 37.3786 21.0183 35.329 19.0033C37.3853 16.9883 38.6529 14.2044 38.6529 11.1289ZM19.3231 3.26112C20.7591 3.26112 22.148 3.44671 23.4695 3.79801L19.3231 7.87441L19.3298 7.88104H19.3231H19.3163L19.3231 7.87441L15.1766 3.79801C16.5048 3.44671 17.8937 3.26112 19.3231 3.26112ZM8.0097 19.0033V19.0099V19.0033L3.86326 23.0797C3.50593 21.7806 3.31715 20.4151 3.31715 19.0033C3.31715 17.5915 3.50593 16.2261 3.86326 14.9269L8.0097 19.0033ZM11.3201 19.0033C11.3201 16.0869 12.9382 13.535 15.3317 12.1828C16.343 11.6128 17.4824 11.2482 18.7095 11.1554C18.7163 11.1554 18.723 11.1554 18.7298 11.1554C18.9253 11.1422 19.1275 11.1355 19.3231 11.1355C19.3837 11.1355 19.4377 11.1355 19.4984 11.1355C21.4468 11.2814 22.9841 12.8721 22.9841 14.8275C22.9841 16.8557 21.3187 18.5062 19.2624 18.5327C19.2489 18.5327 19.2354 18.5327 19.2219 18.5327C19.2084 18.5327 19.195 18.5327 19.1815 18.5327C18.4533 18.5393 17.7656 18.705 17.1453 19.0033C15.5744 19.7589 14.4957 21.3431 14.4957 23.1791C14.4957 24.1734 14.8125 25.0881 15.3452 25.8371C12.9382 24.4717 11.3201 21.9198 11.3201 19.0033ZM19.3231 34.7389C17.887 34.7389 16.4981 34.5533 15.1766 34.202L19.3231 30.1256L19.3163 30.119H19.3231H19.3298L19.3231 30.1256L23.4695 34.202C22.148 34.5533 20.7591 34.7389 19.3231 34.7389ZM22.9504 26.016C21.8649 26.5596 20.631 26.8645 19.3298 26.8645H19.2152C19.1815 26.8645 19.1478 26.8645 19.1208 26.8645C19.0803 26.8645 19.0399 26.8645 18.9994 26.8578C18.986 26.8578 18.9725 26.8578 18.9657 26.8578C17.0038 26.7319 15.4531 25.1279 15.4531 23.1659C15.4531 21.1244 17.1386 19.4607 19.2219 19.4607C19.9703 19.4607 20.6715 19.295 21.2985 18.9901C22.8627 18.2344 23.9482 16.6503 23.9482 14.8142C23.9482 13.7471 23.5774 12.7595 22.9571 11.9707C25.5596 13.2698 27.3395 15.9278 27.3395 18.9901C27.3328 22.0656 25.5528 24.7235 22.9504 26.016ZM34.7963 23.0797L30.6499 19.0033L30.6432 19.0099V19.0033H30.6499L34.7963 14.9269C35.1537 16.2261 35.3425 17.5915 35.3425 19.0033C35.3357 20.4085 35.1469 21.7806 34.7963 23.0797Z" fill="#064E31"/>
<path d="M14.4889 23.1659C14.4889 21.3365 15.5677 19.7457 17.1386 18.9901C17.7521 18.6918 18.4398 18.5261 19.1747 18.5194C19.1882 18.5194 19.2017 18.5194 19.2152 18.5194C19.2287 18.5194 19.2421 18.5194 19.2556 18.5194C21.3187 18.4929 22.9773 16.8491 22.9773 14.8142C22.9773 12.8655 21.4401 11.2681 19.4916 11.1223C19.4377 11.1223 19.377 11.1223 19.3163 11.1223C19.114 11.1223 18.9185 11.1289 18.723 11.1422C18.7163 11.1422 18.7095 11.1422 18.7028 11.1422C17.4824 11.2349 16.3363 11.5929 15.3249 12.1695C12.9247 13.5283 11.3134 16.0736 11.3134 18.9901C11.3134 21.9131 12.9315 24.4584 15.3317 25.8172C14.8058 25.0748 14.4889 24.1601 14.4889 23.1659ZM19.2152 13.8332C19.7748 13.8332 20.2265 14.2773 20.2265 14.8209C20.2265 15.3644 19.7748 15.8151 19.2152 15.8151C18.6623 15.8151 18.2106 15.371 18.2106 14.8209C18.2106 14.2773 18.6623 13.8332 19.2152 13.8332Z" fill="#D2AF6B"/>
<path d="M22.9503 11.9773C23.5706 12.7661 23.9414 13.7471 23.9414 14.8209C23.9414 16.6503 22.8627 18.2344 21.2918 18.9967C20.6647 19.3016 19.9635 19.4673 19.2152 19.4673C17.1386 19.4673 15.4463 21.1244 15.4463 23.1725C15.4463 25.1345 16.997 26.7385 18.959 26.8645C18.9657 26.8645 18.9792 26.8645 18.9927 26.8645C19.0331 26.8645 19.0736 26.8711 19.114 26.8711C19.1477 26.8711 19.1815 26.8711 19.2084 26.8711H19.3163C20.6243 26.8711 21.8514 26.5662 22.9368 26.0227C25.5393 24.7235 27.3193 22.0722 27.3193 19.0033C27.3327 15.9344 25.5528 13.2831 22.9503 11.9773ZM19.2152 24.1601C18.6623 24.1601 18.2106 23.716 18.2106 23.1659C18.2106 22.6224 18.6623 22.1783 19.2152 22.1783C19.7748 22.1783 20.2265 22.6224 20.2265 23.1659C20.2265 23.716 19.7748 24.1601 19.2152 24.1601Z" fill="#D2AF6B"/>
<path d="M8.01015 19.0106V18.9967L8.00293 19.0037L8.01015 19.0106Z" fill="#064E31"/>
<path d="M19.3308 7.8744H19.3231V7.88196H19.3308V7.8744Z" fill="#064E31"/>
<path d="M19.3308 30.1256H19.3231V30.1331H19.3308V30.1256Z" fill="#064E31"/>
<path d="M30.6432 19.0106L30.6504 19.0037L30.6432 18.9967V19.0106Z" fill="#064E31"/>
<path d="M15.1833 34.2086C16.5048 34.5599 17.8937 34.7455 19.3298 34.7455C20.7659 34.7455 22.1548 34.5599 23.4762 34.2086L19.3298 30.1322L15.1833 34.2086Z" fill="white"/>
<path d="M3.31714 19.0033C3.31714 20.4151 3.50592 21.7806 3.86325 23.0797L8.00969 19.0033L3.86325 14.9269C3.50592 16.2261 3.31714 17.5915 3.31714 19.0033Z" fill="white"/>
<path d="M23.4762 3.79802C22.1548 3.44672 20.7591 3.26112 19.3298 3.26112C17.9004 3.26112 16.5048 3.44672 15.1833 3.79802L19.3298 7.87442L23.4762 3.79802Z" fill="white"/>
<path d="M30.6499 19.0033L34.7963 23.0797C35.1537 21.7806 35.3425 20.4151 35.3425 19.0033C35.3425 17.5915 35.1537 16.2261 34.7963 14.9269L30.6499 19.0033Z" fill="white"/>
<path d="M48.3144 28.5017L54.7397 18.6255L48.8672 9.5116H53.2631L56.9444 15.2915L60.6795 9.5116H65.0215L59.1423 18.5924L65.5676 28.5017H61.111L56.9107 21.9529L52.717 28.5017H48.3144Z" fill="#2D2A26"/>
<path d="M81.4926 28.5017L79.9015 24.1734H72.2559L70.6647 28.5017H66.5857L73.9953 9.51823H78.162L85.5716 28.5017H81.4926ZM73.4695 20.6405H78.6542L76.0787 13.6941L73.4695 20.6405Z" fill="#2D2A26"/>
<path d="M101.503 28.5017L99.9122 24.1734H92.2666L90.6755 28.5017H86.5964L94.0061 9.51823H98.1727L105.589 28.5017H101.503ZM93.4869 20.6405H98.6717L96.0962 13.6941L93.4869 20.6405Z" fill="#2D2A26"/>
<path d="M111.435 28.5017H107.585V9.5116H111.435V17.1408H118.757V9.5116H122.606V28.5017H118.757V20.6736H111.435V28.5017Z" fill="#2D2A26"/>
<path d="M140.237 28.5017H134.331V9.5116H145.59V13.0445H138.032V17.0016H140.723C142.752 17.0016 144.282 17.4788 145.327 18.4266C146.373 19.3745 146.892 20.7598 146.892 22.5826C146.892 24.5976 146.298 26.0823 145.112 27.0501C143.932 28.0178 142.3 28.5017 140.237 28.5017ZM138.039 20.1301V25.2538H139.603C140.702 25.2538 141.565 25.0815 142.192 24.7302C142.819 24.3789 143.136 23.7028 143.136 22.6953C143.136 21.6878 142.819 21.0117 142.192 20.6604C141.565 20.3091 140.702 20.1367 139.603 20.1367H138.039V20.1301Z" fill="#2D2A26"/>
<path d="M162.466 28.5017L160.875 24.1734H153.229L151.638 28.5017H147.559L154.969 9.51823H159.135L166.545 28.5017H162.466ZM154.443 20.6405H159.628L157.052 13.6941L154.443 20.6405Z" fill="#2D2A26"/>
<path d="M172.391 28.5017H168.541V9.5116H172.391V17.1408H179.713V9.5116H183.562V28.5017H179.713V20.6736H172.391V28.5017Z" fill="#2D2A26"/>
<path d="M191.107 28.5017H187.25V9.5116H191.107V16.9154L198.051 9.5116H203L195.415 17.5119L202.798 28.5017H198.254L192.786 20.2428L191.107 22.0656V28.5017Z" fill="#2D2A26"/>
</svg>
